# xmcd
#
# Track frame offsets: 
#        150
#        27435
#        48700
#        82957
#        101210
#        126452
#        161452
#        200425
#        210355
#
# Disc length: 3014 seconds
#
# Revision: 1
# Processed by: cddbd v1.5PL3 Copyright (c) Steve Scherf et al.
# Submitted via: ExactAudioCopy v0.90b4
#
DISCID=7a0bc409
DTITLE=Airto Moreira - Killer Bees
DYEAR=1993
DGENRE=Jazz
TTITLE0=Banana Jam
TTITLE1=Be There
TTITLE2=Killer Bees
TTITLE3=City Sushi Man
TTITLE4=See Ya Later
TTITLE5=Nevermind
TTITLE6=Communion
TTITLE7=Nasty Moves
TTITLE8=Chicken In The Mind
EXTD=YEAR: 1993
EXTT0=
EXTT1=
EXTT2=
EXTT3=
EXTT4=
EXTT5=
EXTT6=
EXTT7=
EXTT8=
PLAYORDER=
